<svg width="20" height="20" viewBox="0 0 20 20" fill="none" xmlns="http://www.w3.org/2000/svg">
<path d="M0 3.125C0 2.2962 0.32924 1.50134 0.915291 0.915291C1.50134 0.32924 2.2962 0 3.125 0H16.875C17.7038 0 18.4987 0.32924 19.0847 0.915291C19.6708 1.50134 20 2.2962 20 3.125V16.875C20 17.7038 19.6708 18.4987 19.0847 19.0847C18.4987 19.6708 17.7038 20 16.875 20H3.125C2.2962 20 1.50134 19.6708 0.915291 19.0847C0.32924 18.4987 0 17.7038 0 16.875V3.125ZM3.125 1.25C2.62772 1.25 2.15081 1.44754 1.79917 1.79917C1.44754 2.15081 1.25 2.62772 1.25 3.125V16.875C1.25 17.3723 1.44754 17.8492 1.79917 18.2008C2.15081 18.5525 2.62772 18.75 3.125 18.75H16.875C17.3723 18.75 17.8492 18.5525 18.2008 18.2008C18.5525 17.8492 18.75 17.3723 18.75 16.875V3.125C18.75 2.62772 18.5525 2.15081 18.2008 1.79917C17.8492 1.44754 17.3723 1.25 16.875 1.25H3.125Z" fill="#2E4277"/>
<path d="M11.25 12.5C11.25 12.1685 11.3817 11.8505 11.6161 11.6161C11.8505 11.3817 12.1685 11.25 12.5 11.25H15C15.3315 11.25 15.6495 11.3817 15.8839 11.6161C16.1183 11.8505 16.25 12.1685 16.25 12.5V15C16.25 15.3315 16.1183 15.6495 15.8839 15.8839C15.6495 16.1183 15.3315 16.25 15 16.25H12.5C12.1685 16.25 11.8505 16.1183 11.6161 15.8839C11.3817 15.6495 11.25 15.3315 11.25 15V12.5Z" fill="#2E4277"/>
<path d="M11.25 5C11.25 4.66848 11.3817 4.35054 11.6161 4.11612C11.8505 3.8817 12.1685 3.75 12.5 3.75H15C15.3315 3.75 15.6495 3.8817 15.8839 4.11612C16.1183 4.35054 16.25 4.66848 16.25 5V7.5C16.25 7.83152 16.1183 8.14946 15.8839 8.38388C15.6495 8.6183 15.3315 8.75 15 8.75H12.5C12.1685 8.75 11.8505 8.6183 11.6161 8.38388C11.3817 8.14946 11.25 7.83152 11.25 7.5V5Z" fill="#2E4277"/>
<path d="M3.75 12.5C3.75 12.1685 3.8817 11.8505 4.11612 11.6161C4.35054 11.3817 4.66848 11.25 5 11.25H7.5C7.83152 11.25 8.14946 11.3817 8.38388 11.6161C8.6183 11.8505 8.75 12.1685 8.75 12.5V15C8.75 15.3315 8.6183 15.6495 8.38388 15.8839C8.14946 16.1183 7.83152 16.25 7.5 16.25H5C4.66848 16.25 4.35054 16.1183 4.11612 15.8839C3.8817 15.6495 3.75 15.3315 3.75 15V12.5Z" fill="#2E4277"/>
<path d="M3.75 5C3.75 4.66848 3.8817 4.35054 4.11612 4.11612C4.35054 3.8817 4.66848 3.75 5 3.75H7.5C7.83152 3.75 8.14946 3.8817 8.38388 4.11612C8.6183 4.35054 8.75 4.66848 8.75 5V7.5C8.75 7.83152 8.6183 8.14946 8.38388 8.38388C8.14946 8.6183 7.83152 8.75 7.5 8.75H5C4.66848 8.75 4.35054 8.6183 4.11612 8.38388C3.8817 8.14946 3.75 7.83152 3.75 7.5V5Z" fill="#2E4277"/>
</svg>
