<svg width="32" height="20" viewBox="0 0 32 20" fill="#2056a1" xmlns="http://www.w3.org/2000/svg">
<path d="M32 16C32 17.0609 31.5786 18.0783 30.8284 18.8284C30.0783 19.5786 29.0609 20 28 20H4C2.93913 20 1.92172 19.5786 1.17157 18.8284C0.421427 18.0783 0 17.0609 0 16V13.02C0 12.184 0.21 11.36 0.61 10.626L5.554 1.564C5.81203 1.09071 6.19282 0.695682 6.65633 0.420463C7.11984 0.145243 7.64894 -1.77366e-06 8.188 0H23.812C24.3511 -1.77366e-06 24.8802 0.145243 25.3437 0.420463C25.8072 0.695682 26.188 1.09071 26.446 1.564L31.39 10.624C31.79 11.36 32 12.184 32 13.02V16ZM7.31 2.52L3.184 10.086C3.448 10.028 3.72 10 4 10H28C28.28 10 28.552 10.028 28.816 10.084L24.69 2.52C24.6038 2.36248 24.4768 2.23108 24.3223 2.13958C24.1678 2.04808 23.9916 1.99987 23.812 2H8.188C8.00811 1.99951 7.83142 2.04755 7.67654 2.13907C7.52167 2.23059 7.39435 2.36219 7.308 2.52H7.31ZM2 14V16C2 16.5304 2.21071 17.0391 2.58579 17.4142C2.96086 17.7893 3.46957 18 4 18H28C28.5304 18 29.0391 17.7893 29.4142 17.4142C29.7893 17.0391 30 16.5304 30 16V14C30 13.4696 29.7893 12.9609 29.4142 12.5858C29.0391 12.2107 28.5304 12 28 12H4C3.46957 12 2.96086 12.2107 2.58579 12.5858C2.21071 12.9609 2 13.4696 2 14Z" fill="#2E4277"/>
</svg>
