<svg width="50" height="50" viewBox="0 0 50 50" fill="none" xmlns="http://www.w3.org/2000/svg">
<path d="M37.1384 32.1107L37.1298 36.1126C37.129 36.4583 36.9018 36.8031 36.4484 37.0665L26.2623 42.9862C25.3492 43.5166 23.8641 43.517 22.9453 42.9862L12.6925 37.0669C12.23 36.7998 11.9992 36.4497 12 36.0995L12.0086 32.0996C12.0086 32.4486 22.9535 38.9843 22.9535 38.9843C23.8728 39.5147 25.3578 39.5147 26.2709 38.9839C26.2709 38.9839 37.1376 32.456 37.1384 32.1107Z" fill="#2E4277"/>
<path d="M22.0478 39.4236L13.5579 34.5217C13.3385 34.395 13.0641 34.5534 13.0641 34.8068V36.131C13.0641 36.3662 13.1896 36.5836 13.3933 36.7012L21.8831 41.6027C22.1026 41.7294 22.3769 41.571 22.3769 41.3176V39.9937C22.3769 39.7585 22.2515 39.5412 22.0478 39.4236Z" fill="#384E85"/>
<path d="M36.4465 31.1433C37.3655 31.6739 37.3703 32.5339 36.4573 33.0645L26.2711 38.9841C25.3581 39.5147 23.8731 39.5148 22.9541 38.9842L12.7013 33.0648C11.7823 32.5342 11.7777 31.674 12.6907 31.1434L22.8769 25.2239C23.7899 24.6933 25.2747 24.6932 26.1937 25.2238L36.4465 31.1433Z" fill="#384E85"/>
<path d="M32.4623 31.679C32.8688 31.9137 32.8707 32.2941 32.4668 32.5288L25.3328 36.6746C24.9289 36.9093 24.2723 36.9095 23.8658 36.6748L16.6851 32.529C16.2786 32.2943 16.2764 31.9138 16.6803 31.6791L23.8143 27.5333C24.2182 27.2986 24.8751 27.2986 25.2816 27.5333L32.4623 31.679Z" fill="#2E4277"/>
<path d="M21.3169 39.7233L18.5994 38.1543V39.1835L21.3169 40.7524V39.7233Z" fill="#6BB5FB"/>
<path d="M37.1384 25.8354L37.1298 29.8373C37.129 30.183 36.9018 30.5278 36.4484 30.7912L26.2623 36.7109C25.3492 37.2413 23.8641 37.2417 22.9453 36.7109L12.6925 30.7916C12.23 30.5245 11.9992 30.1743 12 29.8241L12.0086 25.8243C12.0086 26.1733 22.9535 32.709 22.9535 32.709C23.8728 33.2394 25.3578 33.2394 26.2709 32.7086C26.2709 32.7086 37.1376 26.1807 37.1384 25.8354Z" fill="#2E4277"/>
<path d="M22.0478 33.1483L13.5579 28.2464C13.3385 28.1197 13.0641 28.2781 13.0641 28.5315V29.8557C13.0641 30.0909 13.1896 30.3083 13.3933 30.4259L21.8831 35.3274C22.1026 35.4541 22.3769 35.2957 22.3769 35.0423V33.7184C22.3769 33.4832 22.2515 33.2659 22.0478 33.1483Z" fill="#384E85"/>
<path d="M36.4465 24.868C37.3655 25.3986 37.3703 26.2586 36.4573 26.7892L26.2711 32.7088C25.3581 33.2393 23.8731 33.2395 22.9541 32.7089L12.7013 26.7895C11.7823 26.2589 11.7777 25.3987 12.6907 24.8681L22.8769 18.9486C23.7899 18.418 25.2747 18.4179 26.1937 18.9485L36.4465 24.868Z" fill="#384E85"/>
<path d="M32.4623 25.4037C32.8688 25.6384 32.8707 26.0188 32.4668 26.2535L25.3328 30.3993C24.9289 30.634 24.2723 30.6342 23.8658 30.3995L16.6851 26.2537C16.2786 26.019 16.2764 25.6385 16.6803 25.4038L23.8143 21.258C24.2182 21.0233 24.8751 21.0233 25.2816 21.258L32.4623 25.4037Z" fill="#2E4277"/>
<path d="M21.3169 33.448L18.5994 31.879V32.9082L21.3169 34.4771V33.448Z" fill="#6BB5FB"/>
<path d="M37.1384 19.5601L37.1298 23.562C37.129 23.9077 36.9018 24.2525 36.4484 24.5159L26.2623 30.4356C25.3492 30.966 23.8641 30.9664 22.9453 30.4356L12.6925 24.5163C12.23 24.2492 11.9992 23.899 12 23.5488L12.0086 19.549C12.0086 19.898 22.9535 26.4337 22.9535 26.4337C23.8728 26.9641 25.3578 26.9641 26.2709 26.4333C26.2709 26.4333 37.1376 19.9054 37.1384 19.5601Z" fill="#2E4277"/>
<path d="M22.0478 26.873L13.5579 21.9711C13.3385 21.8444 13.0641 22.0028 13.0641 22.2562V23.5804C13.0641 23.8156 13.1896 24.033 13.3933 24.1506L21.8831 29.0521C22.1026 29.1788 22.3769 29.0204 22.3769 28.767V27.4431C22.3769 27.2079 22.2515 26.9906 22.0478 26.873Z" fill="#384E85"/>
<path d="M36.4465 18.5927C37.3655 19.1233 37.3703 19.9833 36.4573 20.5139L26.2711 26.4335C25.3581 26.9641 23.8731 26.9642 22.9541 26.4336L12.7013 20.5142C11.7823 19.9836 11.7777 19.1234 12.6907 18.5928L22.8769 12.6733C23.7899 12.1427 25.2747 12.1426 26.1937 12.6732L36.4465 18.5927Z" fill="#384E85"/>
<path d="M32.4623 19.1284C32.8688 19.3631 32.8707 19.7435 32.4668 19.9782L25.3328 24.124C24.9289 24.3587 24.2723 24.3589 23.8658 24.1242L16.6851 19.9784C16.2786 19.7437 16.2764 19.3632 16.6803 19.1285L23.8143 14.9826C24.2182 14.7479 24.8751 14.7479 25.2816 14.9826L32.4623 19.1284Z" fill="#2E4277"/>
<path d="M21.3169 27.1727L18.5994 25.6037V26.6329L21.3169 28.2018V27.1727Z" fill="#6BB5FB"/>
<path d="M37.1384 13.2848L37.1298 17.2867C37.129 17.6324 36.9018 17.9772 36.4484 18.2406L26.2623 24.1603C25.3492 24.6907 23.8641 24.6911 22.9453 24.1603L12.6925 18.241C12.23 17.9739 11.9992 17.6238 12 17.2736L12.0086 13.2737C12.0086 13.6227 22.9535 20.1584 22.9535 20.1584C23.8728 20.6888 25.3578 20.6888 26.2709 20.158C26.2709 20.158 37.1376 13.6301 37.1384 13.2848Z" fill="#2E4277"/>
<path d="M22.0478 20.5977L13.5579 15.6958C13.3385 15.5691 13.0641 15.7275 13.0641 15.9809V17.3051C13.0641 17.5404 13.1896 17.7577 13.3933 17.8753L21.8831 22.7768C22.1026 22.9035 22.3769 22.7451 22.3769 22.4917V21.1679C22.3769 20.9327 22.2515 20.7153 22.0478 20.5977Z" fill="#384E85"/>
<path d="M36.4465 12.3174C37.3655 12.848 37.3703 13.708 36.4573 14.2386L26.2711 20.1582C25.3581 20.6888 23.8731 20.6889 22.9541 20.1583L12.7013 14.2389C11.7823 13.7083 11.7777 12.8481 12.6907 12.3175L22.8769 6.39795C23.7899 5.86736 25.2747 5.86735 26.1937 6.39794L36.4465 12.3174Z" fill="#384E85"/>
<path d="M32.4623 12.8531C32.8688 13.0878 32.8707 13.4682 32.4668 13.7029L25.3328 17.8487C24.9289 18.0834 24.2723 18.0836 23.8658 17.8489L16.6851 13.7031C16.2786 13.4684 16.2764 13.0879 16.6803 12.8532L23.8143 8.70737C24.2182 8.47267 24.8751 8.47266 25.2816 8.70736L32.4623 12.8531Z" fill="#2E4277"/>
<path d="M21.3169 20.8974L18.5994 19.3284V20.3576L21.3169 21.9266V20.8974Z" fill="#6BB5FB"/>
</svg>
